<svg width="785" height="526" viewBox="0 0 785 526" fill="none" xmlns="http://www.w3.org/2000/svg">
<rect x="0.5" y="20.6851" width="784" height="504.815" fill="white" stroke="black"/>
<path d="M0 8C0 3.58172 3.58172 0 8 0H777C781.418 0 785 3.58172 785 8V20.1851H0V8Z" fill="#13151D"/>
<mask id="mask0_205_208" style="mask-type:alpha" maskUnits="userSpaceOnUse" x="0" y="20" width="785" height="505">
<path d="M0.5 20.6851H784.5V516.896C784.5 521.038 781.142 524.396 777 524.396H8C3.85786 524.396 0.5 521.038 0.5 516.896V20.6851Z" fill="white" stroke="black"/>
</mask>
<g mask="url(#mask0_205_208)">
<rect x="170.589" y="41.6156" width="182.49" height="277.257" fill="#E4E6EF"/>
<rect x="29.6899" y="78.5125" width="123.51" height="16.665" fill="#E4E6EF"/>
<rect x="29.6899" y="99.9389" width="123.51" height="16.665" fill="#E4E6EF"/>
<rect x="29.6899" y="121.365" width="123.51" height="16.665" fill="#E4E6EF"/>
<rect x="29.6899" y="142.792" width="123.51" height="16.665" fill="#E4E6EF"/>
<rect x="29.6899" y="164.218" width="123.51" height="16.665" fill="#E4E6EF"/>
<rect x="29.6899" y="433.238" width="123.51" height="28.5685" fill="#E4E6EF"/>
<rect x="170.588" y="334.715" width="182.49" height="277.257" fill="#FC6321"/>
<rect x="368.949" y="41.6155" width="182.49" height="277.257" fill="#FC6321"/>
<rect x="368.949" y="334.715" width="182.49" height="277.257" fill="#E3E6EF"/>
<rect x="567.308" y="41.6155" width="182.49" height="277.257" fill="#E4E6EF"/>
<rect x="567.308" y="334.715" width="182.49" height="277.257" fill="#FC6321"/>
</g>
<ellipse cx="17.8521" cy="9.91608" rx="5.95077" ry="5.94959" fill="#FA274D"/>
<ellipse cx="35.7047" cy="9.91608" rx="5.95077" ry="5.94959" fill="#EE9F29"/>
<ellipse cx="53.5567" cy="9.91608" rx="5.95077" ry="5.94959" fill="#47B92B"/>
<path d="M35.85 71.7543C34.8924 71.7543 34.0431 71.5116 33.302 71.0263C32.5675 70.5344 32.0002 69.8655 31.6001 69.0194C31.2 68.1668 31 67.2093 31 66.1468C31 65.0712 31.2033 64.1104 31.6099 63.2644C32.0166 62.4118 32.5937 61.7461 33.3414 61.2674C34.089 60.782 34.9547 60.5394 35.9385 60.5394C36.9616 60.5394 37.8437 60.8115 38.5848 61.3559V57.2929H40.9754V71.4592H38.88V70.6722C38.0864 71.3936 37.0764 71.7543 35.85 71.7543ZM33.5086 66.1468C33.5086 66.8158 33.607 67.4126 33.8037 67.9373C34.007 68.462 34.3087 68.8751 34.7088 69.1768C35.1154 69.4785 35.6171 69.6294 36.214 69.6294C37.1256 69.6294 37.7978 69.3211 38.2307 68.7046C38.6635 68.0816 38.88 67.229 38.88 66.1468C38.88 65.0647 38.6668 64.2154 38.2405 63.5989C37.8142 62.9758 37.1649 62.6643 36.2927 62.6643C35.6762 62.6643 35.158 62.8184 34.7383 63.1267C34.3251 63.4284 34.0169 63.8415 33.8136 64.3662C33.6103 64.8909 33.5086 65.4844 33.5086 66.1468Z" fill="black"/>
<path d="M48.5639 71.7543C47.5014 71.7543 46.5603 71.5215 45.7405 71.0558C44.9207 70.5902 44.2812 69.9409 43.8222 69.108C43.3696 68.275 43.1434 67.3273 43.1434 66.2649C43.1434 65.1172 43.3631 64.1137 43.8025 63.2546C44.2485 62.3888 44.8715 61.7199 45.6716 61.2477C46.4718 60.7755 47.3899 60.5394 48.4262 60.5394C49.4493 60.5394 50.3347 60.7656 51.0823 61.2182C51.83 61.6707 52.4039 62.3167 52.8039 63.1562C53.204 63.9891 53.404 64.9696 53.404 66.0976C53.404 66.3206 53.3942 66.5567 53.3745 66.806H45.6815C45.7733 67.6848 46.052 68.3603 46.5177 68.8325C46.9899 69.2982 47.626 69.531 48.4262 69.531C49.0033 69.531 49.505 69.4031 49.9313 69.1473C50.3576 68.885 50.6856 68.5079 50.9151 68.016L53.2565 68.7243C52.9876 69.3539 52.6137 69.8983 52.135 70.3573C51.6628 70.8099 51.1184 71.1575 50.5019 71.4001C49.892 71.6362 49.246 71.7543 48.5639 71.7543ZM50.9741 65.0155C50.8692 64.1891 50.6167 63.5825 50.2166 63.1955C49.8231 62.8086 49.2591 62.6151 48.5246 62.6151C46.9505 62.6151 46.0225 63.4152 45.7405 65.0155H50.9741Z" fill="black"/>
<path d="M59.6719 71.7543C58.3602 71.7543 57.2944 71.4592 56.4746 70.8689C55.6548 70.2786 55.1564 69.449 54.9793 68.38L57.3994 68.0061C57.5174 68.5374 57.7896 68.9538 58.2159 69.2555C58.6487 69.5507 59.1898 69.6982 59.8391 69.6982C60.4031 69.6982 60.8425 69.5867 61.1573 69.3637C61.4721 69.1342 61.6295 68.8227 61.6295 68.4292C61.6295 68.1734 61.5672 67.9766 61.4426 67.8389C61.3246 67.7012 61.0852 67.5667 60.7245 67.4356C60.3638 67.2978 59.7637 67.1175 58.9242 66.8945C58.0257 66.6584 57.3141 66.4059 56.7894 66.137C56.2713 65.8615 55.8975 65.5402 55.6679 65.1729C55.4384 64.7991 55.3236 64.3433 55.3236 63.8055C55.3236 63.1496 55.4941 62.5758 55.8352 62.0839C56.1828 61.592 56.6714 61.2116 57.301 60.9427C57.9371 60.6738 58.6717 60.5394 59.5046 60.5394C60.3244 60.5394 61.0557 60.6673 61.6984 60.923C62.3411 61.1788 62.8593 61.5461 63.2528 62.0249C63.6528 62.4971 63.8955 63.048 63.9807 63.6776L61.5607 64.1104C61.4951 63.6579 61.2852 63.3005 60.9311 63.0381C60.5835 62.7758 60.1211 62.6282 59.544 62.5954C58.9865 62.5692 58.5372 62.6577 58.1962 62.8611C57.8552 63.0578 57.6846 63.3333 57.6846 63.6874C57.6846 63.9038 57.7535 64.0809 57.8912 64.2186C58.0355 64.3564 58.3077 64.4974 58.7078 64.6417C59.1078 64.7794 59.7342 64.9565 60.5868 65.1729C61.4459 65.3959 62.1247 65.6451 62.6231 65.9206C63.1281 66.196 63.4921 66.5272 63.7151 66.9142C63.9447 67.2946 64.0594 67.7635 64.0594 68.321C64.0594 69.0293 63.8824 69.6425 63.5282 70.1606C63.1806 70.6722 62.6756 71.0657 62.0132 71.3411C61.3574 71.6166 60.5769 71.7543 59.6719 71.7543Z" fill="black"/>
<path d="M66.411 57.047H68.7818V59.2211H66.411V57.047ZM66.411 60.8345H68.7818V71.4592H66.411V60.8345Z" fill="black"/>
<path d="M71.9254 57.047H74.2963V59.2211H71.9254V57.047ZM71.9254 60.8345H74.2963V71.4592H71.9254V60.8345Z" fill="black"/>
<path d="M77.4399 57.047H79.8108V59.2211H77.4399V57.047ZM77.4399 60.8345H79.8108V71.4592H77.4399V60.8345Z" fill="black"/>
<path d="M87.2239 76.4764C86.332 76.4764 85.5089 76.2698 84.7546 75.8566C84.0004 75.45 83.4167 74.8859 83.0035 74.1645L85.1875 73.0824C85.3777 73.4497 85.6564 73.7317 86.0237 73.9284C86.391 74.1252 86.7943 74.2235 87.2337 74.2235C88.0011 74.2235 88.6143 74.0235 89.0734 73.6235C89.539 73.2299 89.7653 72.6659 89.7522 71.9314V70.9181C88.998 71.4756 88.0863 71.7543 87.0173 71.7543C86.0598 71.7543 85.2105 71.5116 84.4694 71.0263C83.7348 70.5344 83.1675 69.8655 82.7674 69.0194C82.3674 68.1668 82.1673 67.2093 82.1673 66.1468C82.1673 65.0712 82.3707 64.1104 82.7773 63.2644C83.1839 62.4118 83.761 61.7461 84.5087 61.2674C85.2564 60.782 86.1221 60.5394 87.1058 60.5394C88.2864 60.5394 89.2669 60.8935 90.0473 61.6018V60.8345H92.1231V71.9707C92.1231 72.5413 92.0739 73.0397 91.9755 73.466C91.7394 74.4629 91.1983 75.2139 90.3523 75.7189C89.5128 76.2239 88.47 76.4764 87.2239 76.4764ZM84.6759 66.1468C84.6759 66.8158 84.7743 67.4126 84.9711 67.9373C85.1744 68.462 85.4761 68.8751 85.8761 69.1768C86.2828 69.4785 86.7845 69.6294 87.3813 69.6294C88.2929 69.6294 88.9652 69.3211 89.398 68.7046C89.8309 68.0816 90.0473 67.229 90.0473 66.1468C90.0473 65.0647 89.8342 64.2154 89.4079 63.5989C88.9816 62.9758 88.3323 62.6643 87.46 62.6643C86.8435 62.6643 86.3254 62.8184 85.9057 63.1267C85.4925 63.4284 85.1842 63.8415 84.9809 64.3662C84.7776 64.8909 84.6759 65.4844 84.6759 66.1468Z" fill="black"/>
<path d="M102.23 66.3436C102.23 63.9563 101.404 62.7627 99.7514 62.7627C99.0365 62.7627 98.443 63.0086 97.9708 63.5005C97.4986 63.9858 97.2625 64.8187 97.2625 65.9993V71.4592H94.8621V60.8345H96.9772V62.015C97.3772 61.5428 97.8691 61.1788 98.4528 60.923C99.0365 60.6607 99.7022 60.5295 100.45 60.5295C101.637 60.5295 102.539 60.8312 103.155 61.4346C103.772 62.0314 104.172 62.6971 104.355 63.4316C104.539 64.1662 104.631 64.8647 104.631 65.5271V71.4592H102.23V66.3436Z" fill="black"/>
<path d="M43.5645 56H52.6994V58.1081H43.5645V56Z" fill="#FC6321"/>
</svg>
